HIERARCHY
ROOT Hips
{
	OFFSET -339.306915 540.749023 89.171944
	CHANNELS 6 Xposition Yposition Zposition Zrotation Yrotation Xrotation
	JOINT Spine
	{
		OFFSET 0.000000 2.080078 8.814247
		CHANNELS 6 Xposition Yposition Zposition Zrotation Yrotation Xrotation
		JOINT Spine1
		{
			OFFSET 0.000000 0.000000 8.844139
			CHANNELS 6 Xposition Yposition Zposition Zrotation Yrotation Xrotation
			JOINT Spine2
			{
				OFFSET 0.000000 0.000000 11.682266
				CHANNELS 6 Xposition Yposition Zposition Zrotation Yrotation Xrotation
				JOINT Spine3
				{
					OFFSET 0.000000 0.000000 11.746696
					CHANNELS 6 Xposition Yposition Zposition Zrotation Yrotation Xrotation
					JOINT Neck
					{
						OFFSET 0.000000 0.000000 17.658264
						CHANNELS 6 Xposition Yposition Zposition Zrotation Yrotation Xrotation
						JOINT Neck1
						{
							OFFSET 0.000000 0.000000 5.101517
							CHANNELS 6 Xposition Yposition Zposition Zrotation Yrotation Xrotation
							JOINT Head
							{
								OFFSET 0.000000 0.000000 5.101517
								CHANNELS 6 Xposition Yposition Zposition Zrotation Yrotation Xrotation
								JOINT HeadEnd
								{
									OFFSET 0.000000 0.000000 11.655090
									CHANNELS 6 Xposition Yposition Zposition Zrotation Yrotation Xrotation
									End Site
									{
										OFFSET 0.000000 0.000000 0.100006
									}
								}
							}
						}
					}
					JOINT RightShoulder
					{
						OFFSET -2.625397 0.000000 11.175217
						CHANNELS 6 Xposition Yposition Zposition Zrotation Yrotation Xrotation
						JOINT RightArm
						{
							OFFSET 0.000000 0.000000 10.434708
							CHANNELS 6 Xposition Yposition Zposition Zrotation Yrotation Xrotation
							JOINT RightForeArm
							{
								OFFSET 0.000000 0.000000 29.628418
								CHANNELS 6 Xposition Yposition Zposition Zrotation Yrotation Xrotation
								JOINT RightHand
								{
									OFFSET 0.000000 0.000000 22.857605
									CHANNELS 6 Xposition Yposition Zposition Zrotation Yrotation Xrotation
									JOINT RightHandThumb1
									{
										OFFSET -2.867310 -2.944275 3.959564
										CHANNELS 6 Xposition Yposition Zposition Zrotation Yrotation Xrotation
										JOINT RightHandThumb2
										{
											OFFSET 0.000000 0.000000 3.350403
											CHANNELS 6 Xposition Yposition Zposition Zrotation Yrotation Xrotation
											JOINT RightHandThumb3
											{
												OFFSET 0.000000 0.000000 3.756516
												CHANNELS 6 Xposition Yposition Zposition Zrotation Yrotation Xrotation
												JOINT RightHandThumb4
												{
													OFFSET 0.000000 0.000000 3.147339
													CHANNELS 6 Xposition Yposition Zposition Zrotation Yrotation Xrotation
													End Site
													{
														OFFSET 0.000000 0.000000 0.100006
													}
												}
											}
										}
									}
									JOINT RightHandIndex1
									{
										OFFSET -0.086761 -2.345276 10.030899
										CHANNELS 6 Xposition Yposition Zposition Zrotation Yrotation Xrotation
										JOINT RightHandIndex2
										{
											OFFSET 0.000000 0.000000 4.061096
											CHANNELS 6 Xposition Yposition Zposition Zrotation Yrotation Xrotation
											JOINT RightHandIndex3
											{
												OFFSET 0.000000 0.000000 3.248871
												CHANNELS 6 Xposition Yposition Zposition Zrotation Yrotation Xrotation
												JOINT RightHandIndex4
												{
													OFFSET 0.000000 0.000000 2.639709
													CHANNELS 6 Xposition Yposition Zposition Zrotation Yrotation Xrotation
													End Site
													{
														OFFSET 0.000000 0.000000 0.100006
													}
												}
											}
										}
									}
									JOINT RightHandMiddle1
									{
										OFFSET 0.104095 -0.006775 9.502945
										CHANNELS 6 Xposition Yposition Zposition Zrotation Yrotation Xrotation
										JOINT RightHandMiddle2
										{
											OFFSET 0.000000 0.000000 4.568726
											CHANNELS 6 Xposition Yposition Zposition Zrotation Yrotation Xrotation
											JOINT RightHandMiddle3
											{
												OFFSET 0.000000 0.000000 3.654984
												CHANNELS 6 Xposition Yposition Zposition Zrotation Yrotation Xrotation
												JOINT RightHandMiddle4
												{
													OFFSET 0.000000 0.000000 2.741241
													CHANNELS 6 Xposition Yposition Zposition Zrotation Yrotation Xrotation
													End Site
													{
														OFFSET 0.000000 0.000000 0.100006
													}
												}
											}
										}
									}
									JOINT RightHandRing1
									{
										OFFSET 0.086761 2.267456 8.921707
										CHANNELS 6 Xposition Yposition Zposition Zrotation Yrotation Xrotation
										JOINT RightHandRing2
										{
											OFFSET 0.000000 0.000000 4.061096
											CHANNELS 6 Xposition Yposition Zposition Zrotation Yrotation Xrotation
											JOINT RightHandRing3
											{
												OFFSET 0.000000 0.000000 3.654984
												CHANNELS 6 Xposition Yposition Zposition Zrotation Yrotation Xrotation
												JOINT RightHandRing4
												{
													OFFSET 0.000000 0.000000 2.741241
													CHANNELS 6 Xposition Yposition Zposition Zrotation Yrotation Xrotation
													End Site
													{
														OFFSET 0.000000 0.000000 0.100006
													}
												}
											}
										}
									}
									JOINT RightHandPinky1
									{
										OFFSET -0.173492 4.467224 7.976990
										CHANNELS 6 Xposition Yposition Zposition Zrotation Yrotation Xrotation
										JOINT RightHandPinky2
										{
											OFFSET 0.000000 0.000000 3.350403
											CHANNELS 6 Xposition Yposition Zposition Zrotation Yrotation Xrotation
											JOINT RightHandPinky3
											{
												OFFSET 0.000000 0.000000 2.842758
												CHANNELS 6 Xposition Yposition Zposition Zrotation Yrotation Xrotation
												JOINT RightHandPinky4
												{
													OFFSET 0.000000 0.000000 2.639709
													CHANNELS 6 Xposition Yposition Zposition Zrotation Yrotation Xrotation
													End Site
													{
														OFFSET 0.000000 0.000000 0.100006
													}
												}
											}
										}
									}
									JOINT RightForeArmEnd
									{
										OFFSET 0.000000 0.000000 0.000000
										CHANNELS 6 Xposition Yposition Zposition Zrotation Yrotation Xrotation
										End Site
										{
											OFFSET 0.000000 0.000000 0.100006
										}
									}
								}
								JOINT RightArmEnd
								{
									OFFSET 0.000000 0.000000 0.000000
									CHANNELS 6 Xposition Yposition Zposition Zrotation Yrotation Xrotation
									End Site
									{
										OFFSET 0.000000 0.000000 0.100006
									}
								}
							}
						}
					}
					JOINT LeftShoulder
					{
						OFFSET 2.625397 0.000000 11.175217
						CHANNELS 6 Xposition Yposition Zposition Zrotation Yrotation Xrotation
						JOINT LeftArm
						{
							OFFSET 0.000000 0.000000 10.813629
							CHANNELS 6 Xposition Yposition Zposition Zrotation Yrotation Xrotation
							JOINT LeftForeArm
							{
								OFFSET 0.000000 0.000000 28.724777
								CHANNELS 6 Xposition Yposition Zposition Zrotation Yrotation Xrotation
								JOINT LeftHand
								{
									OFFSET 0.644379 0.328857 25.716171
									CHANNELS 6 Xposition Yposition Zposition Zrotation Yrotation Xrotation
									JOINT LeftHandThumb1
									{
										OFFSET 2.867310 -2.944275 3.959564
										CHANNELS 6 Xposition Yposition Zposition Zrotation Yrotation Xrotation
										JOINT LeftHandThumb2
										{
											OFFSET 0.000000 0.000000 3.350403
											CHANNELS 6 Xposition Yposition Zposition Zrotation Yrotation Xrotation
											JOINT LeftHandThumb3
											{
												OFFSET 0.000000 0.000000 3.756516
												CHANNELS 6 Xposition Yposition Zposition Zrotation Yrotation Xrotation
												JOINT LeftHandThumb4
												{
													OFFSET 0.000000 0.000000 3.100006
													CHANNELS 6 Xposition Yposition Zposition Zrotation Yrotation Xrotation
													End Site
													{
														OFFSET 0.000000 0.000000 0.100006
													}
												}
											}
										}
									}
									JOINT LeftHandIndex1
									{
										OFFSET 0.086761 -2.345276 10.030899
										CHANNELS 6 Xposition Yposition Zposition Zrotation Yrotation Xrotation
										JOINT LeftHandIndex2
										{
											OFFSET 0.000000 0.000000 4.061096
											CHANNELS 6 Xposition Yposition Zposition Zrotation Yrotation Xrotation
											JOINT LeftHandIndex3
											{
												OFFSET 0.000000 0.000000 3.248871
												CHANNELS 6 Xposition Yposition Zposition Zrotation Yrotation Xrotation
												JOINT LeftHandIndex4
												{
													OFFSET 0.000000 0.000000 2.639709
													CHANNELS 6 Xposition Yposition Zposition Zrotation Yrotation Xrotation
													End Site
													{
														OFFSET 0.000000 0.000000 0.100006
													}
												}
											}
										}
									}
									JOINT LeftHandMiddle1
									{
										OFFSET -0.104095 -0.006775 9.502945
										CHANNELS 6 Xposition Yposition Zposition Zrotation Yrotation Xrotation
										JOINT LeftHandMiddle2
										{
											OFFSET 0.000000 0.000000 4.568726
											CHANNELS 6 Xposition Yposition Zposition Zrotation Yrotation Xrotation
											JOINT LeftHandMiddle3
											{
												OFFSET 0.000000 0.000000 3.654984
												CHANNELS 6 Xposition Yposition Zposition Zrotation Yrotation Xrotation
												JOINT LeftHandMiddle4
												{
													OFFSET 0.000000 0.000000 2.741241
													CHANNELS 6 Xposition Yposition Zposition Zrotation Yrotation Xrotation
													End Site
													{
														OFFSET 0.000000 0.000000 0.100006
													}
												}
											}
										}
									}
									JOINT LeftHandRing1
									{
										OFFSET -0.086761 2.267456 8.921707
										CHANNELS 6 Xposition Yposition Zposition Zrotation Yrotation Xrotation
										JOINT LeftHandRing2
										{
											OFFSET 0.000000 0.000000 4.061096
											CHANNELS 6 Xposition Yposition Zposition Zrotation Yrotation Xrotation
											JOINT LeftHandRing3
											{
												OFFSET 0.000000 0.000000 3.654984
												CHANNELS 6 Xposition Yposition Zposition Zrotation Yrotation Xrotation
												JOINT LeftHandRing4
												{
													OFFSET 0.000000 0.000000 2.741241
													CHANNELS 6 Xposition Yposition Zposition Zrotation Yrotation Xrotation
													End Site
													{
														OFFSET 0.000000 0.000000 0.100006
													}
												}
											}
										}
									}
									JOINT LeftHandPinky1
									{
										OFFSET 0.173492 4.467224 7.976990
										CHANNELS 6 Xposition Yposition Zposition Zrotation Yrotation Xrotation
										JOINT LeftHandPinky2
										{
											OFFSET 0.000000 0.000000 3.350403
											CHANNELS 6 Xposition Yposition Zposition Zrotation Yrotation Xrotation
											JOINT LeftHandPinky3
											{
												OFFSET 0.000000 0.000000 2.842758
												CHANNELS 6 Xposition Yposition Zposition Zrotation Yrotation Xrotation
												JOINT LeftHandPinky4
												{
													OFFSET 0.000000 0.000000 2.639709
													CHANNELS 6 Xposition Yposition Zposition Zrotation Yrotation Xrotation
													End Site
													{
														OFFSET 0.000000 0.000000 0.100006
													}
												}
											}
										}
									}
									JOINT LeftForeArmEnd
									{
										OFFSET 0.000000 0.000000 0.000000
										CHANNELS 6 Xposition Yposition Zposition Zrotation Yrotation Xrotation
										End Site
										{
											OFFSET 0.000000 0.000000 0.100006
										}
									}
								}
								JOINT LeftArmEnd
								{
									OFFSET 0.000000 0.000000 0.000000
									CHANNELS 6 Xposition Yposition Zposition Zrotation Yrotation Xrotation
									End Site
									{
										OFFSET 0.000000 0.000000 0.100006
									}
								}
							}
						}
					}
				}
			}
		}
	}
	JOINT RightUpLeg
	{
		OFFSET -11.289948 0.000000 0.000000
		CHANNELS 6 Xposition Yposition Zposition Zrotation Yrotation Xrotation
		JOINT RightLeg
		{
			OFFSET 0.000000 0.000000 -38.200329
			CHANNELS 6 Xposition Yposition Zposition Zrotation Yrotation Xrotation
			JOINT RightFoot
			{
				OFFSET 0.000000 0.000000 -39.900856
				CHANNELS 6 Xposition Yposition Zposition Zrotation Yrotation Xrotation
				JOINT RightToeBase
				{
					OFFSET 0.000000 -15.261658 0.000001
					CHANNELS 6 Xposition Yposition Zposition Zrotation Yrotation Xrotation
					JOINT RightToeBaseEnd
					{
						OFFSET 0.000000 -7.370728 0.000001
						CHANNELS 6 Xposition Yposition Zposition Zrotation Yrotation Xrotation
						End Site
						{
							OFFSET 0.000000 0.000000 0.100000
						}
					}
				}
				JOINT RightLegEnd
				{
					OFFSET 0.000000 0.000000 0.000000
					CHANNELS 6 Xposition Yposition Zposition Zrotation Yrotation Xrotation
					End Site
					{
						OFFSET 0.000000 0.000000 0.100000
					}
				}
			}
			JOINT RightUpLegEnd
			{
				OFFSET 0.000000 0.000000 0.000000
				CHANNELS 6 Xposition Yposition Zposition Zrotation Yrotation Xrotation
				End Site
				{
					OFFSET 0.000000 0.000000 0.099998
				}
			}
		}
	}
	JOINT LeftUpLeg
	{
		OFFSET 11.315674 0.000000 0.000000
		CHANNELS 6 Xposition Yposition Zposition Zrotation Yrotation Xrotation
		JOINT LeftLeg
		{
			OFFSET 0.000000 0.000000 -38.200329
			CHANNELS 6 Xposition Yposition Zposition Zrotation Yrotation Xrotation
			JOINT LeftFoot
			{
				OFFSET 0.000000 0.000000 -39.900856
				CHANNELS 6 Xposition Yposition Zposition Zrotation Yrotation Xrotation
				JOINT LeftToeBase
				{
					OFFSET 0.000000 -15.261658 0.000001
					CHANNELS 6 Xposition Yposition Zposition Zrotation Yrotation Xrotation
					JOINT LeftToeBaseEnd
					{
						OFFSET 0.000000 -7.539978 0.000001
						CHANNELS 6 Xposition Yposition Zposition Zrotation Yrotation Xrotation
						End Site
						{
							OFFSET 0.000000 0.000000 0.100000
						}
					}
				}
				JOINT LeftLegEnd
				{
					OFFSET 0.000000 0.000000 0.000000
					CHANNELS 6 Xposition Yposition Zposition Zrotation Yrotation Xrotation
					End Site
					{
						OFFSET 0.000000 0.000000 0.100000
					}
				}
			}
			JOINT LeftUpLegEnd
			{
				OFFSET 0.000000 0.000000 0.000000
				CHANNELS 6 Xposition Yposition Zposition Zrotation Yrotation Xrotation
				End Site
				{
					OFFSET 0.000000 0.000000 0.099998
				}
			}
		}
	}
}
MOTION
Frames: 2
Frame Time: 0.016667
4.505127 -31.951965 88.967514 -10.626179 -1.210358 -0.879296 -0.000001 2.080103 8.814262 -0.045161 -2.112178 -0.522961 -0.000012 0.000008 8.844156 -0.080593 -3.145927 -1.219729 -0.000002 0.000054 11.682264 5.598316 0.948049 0.049271 -0.000016 0.000016 11.746686 2.146037 2.683576 0.486600 -0.000014 0.000011 17.658310 4.199189 13.555628 13.886809 -0.000003 -0.000026 5.101547 -0.990916 0.746173 0.415064 0.000012 0.000010 5.101547 0.300708 -0.024447 -15.308973 0.000000 0.000000 11.655070 -0.000000 -0.000002 0.000001 -2.625389 -0.000013 11.175227 7.592541 -65.789017 0.026540 0.000006 0.000011 10.434715 402.425074 -5.658949 -368.785846 -0.000004 0.000004 29.628429 12.913898 -0.397103 18.497952 0.000008 -0.000029 22.857613 -2.022267 21.926523 -28.216895 -2.867302 -2.944244 3.959564 32.220639 -14.232659 56.352838 0.000000 0.000027 3.350399 -6.069826 4.961936 -11.486747 0.000005 0.000019 3.756517 -4.107953 3.576627 -7.916128 -0.000004 -0.000069 3.147340 0.000000 0.000000 -0.000003 -0.086792 -2.345276 10.030918 10.332858 8.859424 12.538385 -0.000021 -0.000008 4.061101 -0.505220 -0.000010 -0.000017 0.000013 0.000032 3.248893 -0.004951 0.000002 -0.000000 0.000009 -0.000070 2.639704 0.000000 -0.000003 -0.000000 0.104065 -0.006794 9.502934 4.933411 7.578767 10.473566 -0.000001 0.000002 4.568724 -0.503450 0.048446 -0.000427 -0.000012 -0.000010 3.654961 -0.002977 -0.026963 0.000003 -0.000013 -0.000002 2.741239 0.000001 0.000001 -0.000001 0.086724 2.267445 8.921713 -3.987880 3.322977 8.371271 0.000010 -0.000013 4.061108 1.000769 -0.020283 -0.000357 -0.000006 -0.000011 3.654999 0.000603 0.010452 0.000129 0.000038 0.000003 2.741269 0.000000 -0.000003 -0.000002 -0.173519 4.467199 7.976997 -13.176085 0.105495 8.091636 -0.000002 0.000013 3.350410 1.997584 -1.194266 0.232165 0.000006 0.000054 2.842770 -0.002424 -1.194273 0.232178 -0.000031 0.000012 2.639707 -0.000003 0.000003 0.000001 0.000002 0.000004 0.000002 0.000000 0.000001 -0.000000 -0.000012 -0.000009 0.000006 0.000001 -0.000001 -0.000000 2.625412 0.000001 11.175217 -5.257943 71.307325 -0.036141 0.000015 -0.000004 10.813644 -404.181881 10.999093 -380.257887 -0.000046 -0.000031 28.724808 -34.613473 10.231512 36.476762 0.644386 0.328835 25.716202 22.356741 -20.812964 -29.494635 2.867302 -2.944275 3.959579 -32.131402 14.558089 55.808735 0.000004 0.000023 3.350439 6.766215 -5.410479 -12.729384 0.000000 0.000011 3.756525 4.569052 -3.919089 -8.765345 0.000005 0.000004 3.100050 0.000002 0.000000 -0.000004 0.086761 -2.345261 10.030891 6.390875 -13.266950 15.946101 0.000013 -0.000026 4.061106 -0.501214 0.000013 -0.000020 0.000012 -0.000019 3.248890 -0.001207 -0.000000 -0.000337 0.000005 -0.000007 2.639734 0.000002 -0.000001 0.000002 -0.104095 -0.006789 9.502937 1.506236 -11.846096 12.170692 0.000024 -0.000012 4.568736 -0.508324 0.000010 -0.000015 0.000004 0.000023 3.655000 -0.007101 -0.000009 -0.000001 0.000010 -0.000022 2.741269 0.000003 -0.000000 -0.000002 -0.086765 2.267479 8.921722 -6.404522 -9.888219 8.767644 -0.000003 -0.000029 4.061123 1.002968 -0.000186 -0.000008 -0.000003 -0.000008 3.655003 0.002339 -0.000006 0.000003 0.000005 -0.000002 2.741272 0.000000 0.000001 -0.000001 0.173489 4.467241 7.976990 -14.830812 -8.554965 5.578277 -0.000002 -0.000021 3.350405 2.004833 -0.000000 0.000000 0.000013 0.000027 2.842767 0.004088 -0.000001 -0.000003 0.000014 0.000001 2.639710 0.000000 0.000004 -0.000001 0.000010 0.000002 0.000022 -0.000000 -0.000000 -0.000001 -0.000004 -0.000017 0.000020 0.000001 0.000001 0.000000 -11.289984 0.000065 0.000008 16.197001 -0.635230 -6.093313 -0.000001 0.000042 -38.200336 0.088188 -0.025719 16.489789 0.000023 -0.000011 -39.900833 -7.172452 5.874948 17.088404 -0.000007 -15.261654 0.000012 -0.846326 0.984028 -23.038916 -0.000001 -7.370667 0.000001 0.000000 0.000001 -0.000000 0.000000 0.000062 0.000003 -0.000000 -0.000001 -0.000000 -0.000000 0.000004 0.000003 -0.000001 0.000000 0.000001 11.315664 0.000082 0.000017 5.323339 2.577403 1.088332 -0.000003 0.000112 -38.200325 0.379891 -0.044962 6.214944 0.000021 0.000000 -39.900841 2.864117 -3.384234 20.929334 -0.000010 -15.261643 0.000017 -0.645928 0.086836 -21.678561 -0.000000 -7.539915 0.000002 -0.000000 -0.000000 -0.000000 -0.000000 -0.000062 0.000000 0.000000 0.000000 -0.000002 -0.000025 0.000063 -0.000000 -0.000000 0.000000 -0.000000 
4.469635 -31.915283 88.973175 -11.430494 -1.310219 -0.684909 -0.000001 2.080083 8.814272 -0.066677 -2.337075 -0.535484 0.000013 0.000022 8.844131 -0.132052 -3.336570 -1.141824 -0.000017 0.000010 11.682277 6.021186 1.148693 0.066843 -0.000056 -0.000024 11.746723 2.269307 3.076952 0.522305 0.000011 0.000006 17.658310 5.126308 14.589009 13.447750 -0.000005 0.000023 5.101562 -0.454638 0.687745 0.031406 -0.000014 0.000006 5.101546 0.388401 0.030473 -14.886028 -0.000001 0.000001 11.655088 -0.000000 0.000001 -0.000001 -2.625412 -0.000011 11.175258 7.893038 -66.555050 0.027341 -0.000042 -0.000003 10.434708 402.408900 -7.096023 -370.237207 0.000001 -0.000019 29.628435 14.898461 -0.367926 17.360008 0.000000 0.000024 22.857597 0.090284 19.773519 -26.297798 -2.867317 -2.944290 3.959572 32.008141 -15.052248 54.994340 0.000002 -0.000008 3.350433 -7.829526 6.055000 -14.603214 -0.000006 0.000010 3.756517 -5.270731 4.419798 -10.045901 0.000008 -0.000077 3.147330 0.000000 -0.000003 -0.000003 -0.086742 -2.345341 10.030903 9.063198 2.484836 6.491912 0.000007 0.000002 4.061102 -0.499990 -0.000001 0.000003 -0.000023 -0.000000 3.248850 0.000000 0.000001 0.000000 0.000038 -0.000000 2.639704 0.000000 0.000001 0.000000 0.104102 -0.006784 9.502966 3.749989 1.153076 6.109207 0.000007 0.000006 4.568747 -0.499989 -0.000367 0.000002 0.000006 0.000008 3.654987 -0.000008 0.000002 -0.000006 -0.000006 -0.000001 2.741248 0.000000 0.000002 0.000003 0.086767 2.267448 8.921719 -5.213039 -3.636356 6.516503 -0.000015 -0.000017 4.061092 0.995398 -2.933899 0.179614 0.000010 -0.000009 3.654993 -0.004617 -2.934126 0.179716 0.000003 0.000011 2.741266 -0.000002 0.000000 -0.000001 -0.173491 4.467205 7.976982 -14.470567 -6.565700 8.679206 -0.000002 0.000022 3.350418 1.942239 -5.822958 1.135859 -0.000009 0.000017 2.842753 -0.057780 -5.822963 1.135855 -0.000010 0.000001 2.639709 -0.000000 -0.000000 0.000000 -0.000003 -0.000003 0.000004 0.000001 0.000002 -0.000001 -0.000003 0.000071 0.000004 -0.000001 -0.000002 -0.000001 2.625404 0.000010 11.175268 -5.042201 72.072921 -0.007521 0.000000 -0.000042 10.813652 -405.001340 11.694063 -382.314812 -0.000015 0.000031 28.724773 -34.345295 9.680757 36.246707 0.644382 0.328865 25.716179 15.064732 -19.574443 -26.653323 2.867317 -2.944305 3.959579 -32.008162 15.052175 54.995075 -0.000011 -0.000019 3.350437 7.829727 -6.054743 -14.604898 0.000013 0.000031 3.756519 5.270483 -4.419940 -10.044998 0.000004 -0.000005 3.100001 0.000001 0.000001 0.000002 0.086758 -2.345280 10.030910 7.344941 -7.383901 14.101232 -0.000001 -0.000004 4.061102 -0.500144 0.123122 -0.001064 -0.000010 -0.000017 3.248883 -0.000171 -0.068236 0.000696 -0.000011 0.000008 2.639718 -0.000002 0.000001 -0.000000 -0.104090 -0.006775 9.502930 2.493932 -6.093207 10.495576 0.000005 0.000009 4.568736 -0.504017 -0.000014 -0.000001 -0.000011 0.000004 3.654989 -0.003420 -0.000002 -0.000003 0.000007 0.000059 2.741252 0.000001 0.000001 -0.000001 -0.086763 2.267473 8.921721 -5.265618 -3.906609 7.172464 -0.000015 -0.000023 4.061105 1.000368 0.000560 0.000004 0.000001 0.000087 3.654996 0.000287 -0.000001 -0.000000 -0.000000 -0.000004 2.741247 0.000000 0.000001 -0.000002 0.173490 4.467237 7.976983 -13.607708 -2.685532 3.789815 0.000004 0.000076 3.350410 2.000012 -0.000004 -0.000002 0.000001 0.000059 2.842765 0.000001 0.000001 -0.000001 0.000005 0.000065 2.639713 -0.000000 -0.000000 0.000000 0.000014 -0.000004 -0.000001 0.000000 -0.000001 0.000001 -0.000003 0.000010 0.000029 -0.000001 0.000000 -0.000002 -11.289971 0.000000 0.000011 16.658039 -0.473599 -6.486950 -0.000013 0.000109 -38.200317 0.083750 -0.024427 16.703880 0.000005 0.000004 -39.900841 -6.804199 5.906744 17.138485 0.000013 -15.261708 0.000010 -0.858709 0.993589 -23.057464 -0.000000 -7.370667 0.000001 0.000000 0.000001 0.000000 0.000001 0.000064 0.000001 -0.000000 -0.000000 -0.000000 0.000002 -0.000004 0.000004 0.000000 -0.000000 0.000000 11.315646 -0.000004 0.000011 5.910833 2.660062 1.003662 -0.000003 0.000069 -38.200310 0.383132 -0.045014 6.188836 0.000009 -0.000005 -39.900864 3.079856 -3.341227 20.985780 -0.000009 -15.261641 -0.000005 -0.655668 0.111649 -21.757479 0.000001 -7.539977 0.000000 -0.000000 -0.000000 -0.000001 -0.000001 -0.000062 -0.000000 0.000000 -0.000000 0.000000 0.000001 0.000059 -0.000003 0.000000 0.000000 0.000000 
